<svg xmlns="http://www.w3.org/2000/svg" viewBox="0 0 291.88 52.81"><defs><style>.cls-1,.cls-5{fill:#231f20;}.cls-2,.cls-3,.cls-4{fill:none;}.cls-2,.cls-3,.cls-4,.cls-5{stroke:#231f20;stroke-miterlimit:10;}.cls-2{stroke-width:2px;}.cls-4,.cls-5{stroke-width:0.25px;}</style></defs><g id="Layer_1" data-name="Layer 1"><g id="Layer_2" data-name="Layer 2"><path class="cls-1" d="M72,35.57V38q0,4.38,1.8,6.15T80,46h4.92q4.08,0,5.88-1.11a4.64,4.64,0,0,0,2-3.81,1.21,1.21,0,0,1,1.32-1.26,1.2,1.2,0,0,1,.93.36,1.18,1.18,0,0,1,.27,1,7.07,7.07,0,0,1-2.85,5.61q-2.55,1.77-7.59,1.77H80q-5.46,0-8-2.49T69.47,38V31.31q0-5.52,2.52-8t8-2.46h4.92q5.52,0,8,2.49t2.49,8v3a1.11,1.11,0,0,1-1.26,1.26Zm0-2.52H92.87V31.31q0-4.44-1.77-6.21t-6.21-1.77H80q-4.38-.06-6.18,1.74T72,31.31Z" transform="translate(-7.63 -7.07)"/><path class="cls-1" d="M121.19,22.07a1.11,1.11,0,0,1-1.26,1.26q-5.4,0-8.43,2.58a10.17,10.17,0,0,0-3.33,7.5.84.84,0,0,1-.06.36V47.21a1.26,1.26,0,0,1-2.52,0V22.07a1.26,1.26,0,1,1,2.52,0v5.64a11,11,0,0,1,4.5-5.13,14.17,14.17,0,0,1,7.32-1.77A1.11,1.11,0,0,1,121.19,22.07Z" transform="translate(-7.63 -7.07)"/><path class="cls-1" d="M150,23.3q2.49,2.49,2.49,8v15.9a1.26,1.26,0,1,1-2.52,0V31.31q0-4.44-1.77-6.21T142,23.33h-1.68q-9.78,0-10.56,6.54l-.06.36v17a1.26,1.26,0,0,1-2.52,0V22.07a1.26,1.26,0,0,1,2.52,0v3.48q2.76-4.74,10.62-4.74H142Q147.53,20.81,150,23.3Z" transform="translate(-7.63 -7.07)"/><path class="cls-1" d="M164.69,35.57V38q0,4.38,1.8,6.15T172.67,46h4.92q4.08,0,5.88-1.11a4.64,4.64,0,0,0,2-3.81,1.21,1.21,0,0,1,1.32-1.26,1.2,1.2,0,0,1,.93.36,1.18,1.18,0,0,1,.27,1,7.07,7.07,0,0,1-2.85,5.61q-2.55,1.77-7.59,1.77h-4.92q-5.46,0-8-2.49T162.17,38V31.31q0-5.52,2.52-8t8-2.46h4.92q5.52,0,8,2.49t2.49,8v3a1.11,1.11,0,0,1-1.26,1.26Zm0-2.52h20.88V31.31q0-4.44-1.77-6.21t-6.21-1.77h-4.92q-4.38-.06-6.18,1.74t-1.8,6.24Z" transform="translate(-7.63 -7.07)"/><path class="cls-1" d="M200.21,46.58q-1.92-1.89-1.92-6V8.33a1.26,1.26,0,0,1,2.52,0V40.61q0,3.06,1.17,4.2T206.21,46q1.32,0,1.32,1.26a1.11,1.11,0,0,1-1.26,1.26Q202.13,48.47,200.21,46.58Z" transform="translate(-7.63 -7.07)"/><path class="cls-1" d="M215.45,46q-2.52-2.52-2.52-8V31.25q0-5.52,2.52-8t8-2.43h4.92q4.44,0,6.66,1.5A6.14,6.14,0,0,1,237.59,27v.12q0,1.2-1.26,1.2-1.08,0-1.26-1.2a3.58,3.58,0,0,0-1.8-2.91,10.54,10.54,0,0,0-4.92-.87h-4.92Q219,23.27,217.22,25t-1.77,6.21V38q0,4.38,1.8,6.18t6.18,1.8h4.92a10.54,10.54,0,0,0,4.92-.87,3.58,3.58,0,0,0,1.8-2.91q.18-1.2,1.26-1.2a1.28,1.28,0,0,1,1,.36,1.18,1.18,0,0,1,.27,1A6.14,6.14,0,0,1,235,47q-2.22,1.5-6.66,1.5h-4.92Q218,48.47,215.45,46Z" transform="translate(-7.63 -7.07)"/><path class="cls-1" d="M297,23.3q2.49,2.49,2.49,8v15.9a1.26,1.26,0,1,1-2.52,0V31.31q0-4.44-1.77-6.21T289,23.33h-1.68q-9.78,0-10.56,6.54l-.06.36v17a1.26,1.26,0,1,1-2.52,0V22.07a1.26,1.26,0,1,1,2.52,0v3.48q2.76-4.74,10.62-4.74H289Q294.53,20.81,297,23.3Z" transform="translate(-7.63 -7.07)"/></g></g><g id="Layer_8" data-name="Layer 8"><polyline class="cls-2" points="34.98 20.21 40.87 20.21 55.25 3.03"/><polyline class="cls-2" points="34.88 25.51 44.75 25.31 63.11 2.97"/><line class="cls-2" x1="17.51" y1="43.34" x2="17.51" y2="49.68"/><line class="cls-2" x1="22.74" y1="42.13" x2="22.74" y2="49.91"/><line class="cls-2" x1="27.88" y1="42.32" x2="27.98" y2="49.9"/><line class="cls-2" x1="5.5" y1="35.94" x2="3.08" y2="35.94"/><line class="cls-2" x1="5.66" y1="30.54" x2="2.95" y2="30.54"/><line class="cls-2" x1="5.58" y1="25.55" x2="2.88" y2="25.55"/><line class="cls-2" x1="5.55" y1="19.82" x2="2.91" y2="19.82"/><line class="cls-2" x1="17.51" y1="13.19" x2="17.51" y2="3.35"/><line class="cls-2" x1="22.67" y1="13.09" x2="22.68" y2="3.23"/><line class="cls-2" x1="28.13" y1="12.92" x2="28.13" y2="3.43"/><circle class="cls-3" cx="1.76" cy="35.78" r="1.24"/><circle class="cls-3" cx="1.75" cy="30.57" r="1.24"/><circle class="cls-3" cx="1.75" cy="25.42" r="1.24"/><circle class="cls-3" cx="1.75" cy="19.81" r="1.24"/><circle class="cls-3" cx="22.9" cy="51.07" r="1.24"/><circle class="cls-3" cx="28.07" cy="51.06" r="1.24"/><circle class="cls-3" cx="17.54" cy="51.04" r="1.24"/><circle class="cls-3" cx="11.93" cy="51.05" r="1.24"/><circle class="cls-3" cx="11.72" cy="2.04" r="1.24"/><circle class="cls-3" cx="17.49" cy="2.02" r="1.24"/><circle class="cls-3" cx="22.62" cy="2.03" r="1.24"/><circle class="cls-3" cx="28.22" cy="2.04" r="1.24"/><polyline class="cls-2" points="34.58 30.57 44.42 30.57 61.91 50.26"/><polyline class="cls-2" points="34.67 35.72 40.82 35.82 54.79 50.27"/><circle class="cls-3" cx="55.43" cy="51.02" r="1.24"/><circle class="cls-3" cx="62.44" cy="51.03" r="1.24"/><circle class="cls-3" cx="56.19" cy="1.98" r="1.24"/><circle class="cls-3" cx="63.62" cy="2.04" r="1.24"/><line class="cls-2" x1="11.79" y1="12.99" x2="11.79" y2="3.15"/><line class="cls-2" x1="11.92" y1="43.34" x2="11.9" y2="49.86"/></g><g id="Layer_7" data-name="Layer 7"><rect class="cls-4" x="6.29" y="13.91" width="27.59" height="27.59" rx="3.55"/><rect class="cls-4" x="9.78" y="17.56" width="20.61" height="20.61" rx="3.37"/><circle class="cls-1" cx="9.13" cy="16.31" r="0.94"/><polygon class="cls-5" points="9.8 41.52 12.19 45.1 13.53 41.6 9.8 41.52"/><polygon class="cls-5" points="15.34 41.51 17.72 45.09 19.06 41.59 15.34 41.51"/><polygon class="cls-5" points="20.47 41.51 22.86 45.09 24.19 41.59 20.47 41.51"/><polygon class="cls-5" points="25.84 41.54 28.23 45.11 29.57 41.61 25.84 41.54"/><polygon class="cls-5" points="9.91 13.89 12.29 10.32 13.63 13.82 9.91 13.89"/><polygon class="cls-5" points="15.51 13.9 17.89 10.33 19.23 13.83 15.51 13.9"/><polygon class="cls-5" points="20.71 13.91 23.09 10.33 24.43 13.83 20.71 13.91"/><polygon class="cls-5" points="26.1 13.91 28.48 10.34 29.82 13.84 26.1 13.91"/><path class="cls-5" d="M10.46,27c0,.06,0,.11,0,.16l3.35,1.29.08-3.72Z" transform="translate(-7.63 -7.07)"/><polygon class="cls-5" points="2.71 25.58 2.7 25.59 6.19 26.93 6.27 23.21 2.71 25.58"/><path class="cls-5" d="M10.39,37.75s0,0,0,.08l3.42,1.31.07-3.72Z" transform="translate(-7.63 -7.07)"/><path class="cls-5" d="M10.56,43a1.31,1.31,0,0,1,0,.28l3.24,1.24.08-3.72Z" transform="translate(-7.63 -7.07)"/><polygon class="cls-5" points="33.92 17.79 37.5 20.17 34 21.51 33.92 17.79"/><polygon class="cls-5" points="33.91 23.36 37.48 25.74 33.98 27.08 33.91 23.36"/><polygon class="cls-5" points="33.91 28.5 37.48 30.88 33.98 32.22 33.91 28.5"/><polygon class="cls-5" points="33.94 33.87 37.51 36.25 34.01 37.59 33.94 33.87"/></g><g id="Layer_9" data-name="Layer 9"><path class="cls-3" d="M258.2,48.48c-.39.17-.41.71-.64,1.07a1.85,1.85,0,0,1-.4.39,18.64,18.64,0,0,1-1.78,1.28,2.06,2.06,0,0,0-.74-.88,6.72,6.72,0,0,0-.9-.28,1.47,1.47,0,0,1-.88-1c-.22-1-1.28-1.86-1.85-2.72-2.29-3.41-5.25-6.48-6.56-10.37a11.5,11.5,0,0,1,1.65-10.8,11.28,11.28,0,0,1,7.14-3.84,16.56,16.56,0,0,1,8.14,1,6.94,6.94,0,0,1,3,1.85,7.18,7.18,0,0,1,1.34,3.3,23.27,23.27,0,0,1,.34,6.4,34.7,34.7,0,0,1-.78,4.74,20.3,20.3,0,0,1-2.14,6.05A10.41,10.41,0,0,1,258.2,48.48Z" transform="translate(-7.63 -7.07)"/><path class="cls-4" d="M252.63,45.74a10.32,10.32,0,0,0,.6,2,6.14,6.14,0,0,0,3.45.29.92.92,0,0,0,1-1l.33-2.27" transform="translate(-7.63 -7.07)"/><path class="cls-4" d="M251.86,37.34a11.23,11.23,0,0,1,.26-6.87,10.68,10.68,0,0,1,2.14-4.2,2.42,2.42,0,0,1,1.67-.92,1.91,1.91,0,0,1,1.45.79,5.7,5.7,0,0,1,.76,1.52,22.52,22.52,0,0,1,1.36,5.09,10,10,0,0,1-.65,5.17" transform="translate(-7.63 -7.07)"/><path class="cls-4" d="M252.91,47.58c0,.05,0,.11-.07.11s-.09-.08,0-.1,0,.1,0,.07v-.22a.23.23,0,0,1,0,.25,1.21,1.21,0,0,1,0-.5v.44a1.34,1.34,0,0,1,.12-.79,2.12,2.12,0,0,1-.06.79,1.28,1.28,0,0,1,.11-.33.5.5,0,0,1,0,.46,1,1,0,0,1,.25-.69v.63a.57.57,0,0,1,.2-.32v.43l.16-.31a.58.58,0,0,1,.06.26c.17-.22.51-.15.78,0a1.15,1.15,0,0,1,.62.43l-1.08.06a.42.42,0,0,1-.25,0c-.07-.05-.11-.16-.05-.22a.73.73,0,0,1,.44-.17c.16,0,.31.2.22.34a2.13,2.13,0,0,1,1.92-.06c.06,0,.14.08.12.15s-.15,0-.1,0" transform="translate(-7.63 -7.07)"/><path class="cls-4" d="M252.74,45.64l-.08-.49C252.72,45.52,252.69,45.27,252.74,45.64Z" transform="translate(-7.63 -7.07)"/><path class="cls-4" d="M252.81,46.47l.07.13" transform="translate(-7.63 -7.07)"/><path class="cls-4" d="M245.42,26.58a6,6,0,0,1,1.16-1.26c-.28.28-.7.78-1,1.05a5,5,0,0,0,.64-1.15,5.63,5.63,0,0,0-.9,1.27l1-.95a25.31,25.31,0,0,1-2,2.58,10.41,10.41,0,0,0,2.27-2l-2,2.46a6.25,6.25,0,0,0,1.81-2.35,5.51,5.51,0,0,0-1.7,2l1.89-2.45A13.27,13.27,0,0,0,244.91,29a13.36,13.36,0,0,0,1.6-2.06,12.12,12.12,0,0,0-2.12,3.6c.7-.91,1.36-1.86,2-2.84a10.71,10.71,0,0,0-2,3.43l2.25-3.25a14.07,14.07,0,0,0-2.37,3.67,9.15,9.15,0,0,0,.56-2.68,1.28,1.28,0,0,0-.61.76,3.77,3.77,0,0,1,1.15-1.71,11.85,11.85,0,0,0-1,2.48,10.43,10.43,0,0,1,1.55-2,7.86,7.86,0,0,0-1.45,3.21l2-2.71a14.65,14.65,0,0,0-2.13,3.85,35,35,0,0,1,1.89-3.39,20.14,20.14,0,0,0-2.08,4.34l2-3.56a24.07,24.07,0,0,0-1.84,4.49c.58-1.44,1.22-2.87,1.91-4.26a25.81,25.81,0,0,0-1.62,5.07,18.94,18.94,0,0,1,1.66-3.74,19.09,19.09,0,0,0-1.42,4.57c.65-1.36,1.24-2.75,1.77-4.16l-1.33,4.31a24,24,0,0,1,1.33-3.58,23.15,23.15,0,0,0-.91,4l1-2.85a24.46,24.46,0,0,0-.73,3.7,25.52,25.52,0,0,0,1.09-3.41,25.64,25.64,0,0,0-.55,3.79l.76-2.73a13.09,13.09,0,0,0-.08,4.19l1.1-3.31-.62,4.35a13.68,13.68,0,0,0,.25-3,10.39,10.39,0,0,0-.31,2.36l.14-3.16a33,33,0,0,0-.9,3.38l-.51-2.52a3.21,3.21,0,0,1-.23,1.91,12.16,12.16,0,0,1-.5-2.61l0,1.24L245,36l-.13.33a.85.85,0,0,1,.09-.73,14.54,14.54,0,0,0,1.44,3.22,5.59,5.59,0,0,0,.65-2.22l.16,3.58c.06-1,.17-2.09.33-3.13a17.71,17.71,0,0,0,.35,3.84c.06.32.23.72.56.72a5.08,5.08,0,0,0,.05-3.2c0,1.47.15,2.94.3,4.4.17-1.24.29-2.48.34-3.73a23.12,23.12,0,0,0-.13,4l-1-5.69a24.29,24.29,0,0,0,.71,5.15,38.84,38.84,0,0,1,0-4.45l.58,5.85-.07-2.72a16,16,0,0,0,.91,3.47c-.06-1-.15-2-.3-3.07a16.29,16.29,0,0,1,.36,3,28.21,28.21,0,0,1-.91-4.05,13.09,13.09,0,0,0,.94,3.48l-.64-3.16L250.88,45l-.09-2.52.71,3.27a8.33,8.33,0,0,0-.36-2.33,3.81,3.81,0,0,0,.69,2.31,1.59,1.59,0,0,0-.2-.85V46a.5.5,0,0,1-.37-.15,1.47,1.47,0,0,0,1.19,1.77" transform="translate(-7.63 -7.07)"/><path class="cls-4" d="M248.87,24l-.07.07" transform="translate(-7.63 -7.07)"/><path class="cls-4" d="M254.13,21.49c-1.22.86-2.74,1.28-4,2.06a14.6,14.6,0,0,0,2.75-2.23,15.63,15.63,0,0,1-2.07,1.31,2.37,2.37,0,0,0-.61.37,14.87,14.87,0,0,1-1.73,1.1c-.38.24-.47-.08-.85.15l2.87-2.18-2.57,1.85a10.34,10.34,0,0,1,2.6-1.29l-3.39,3,2.79-1.58a23.15,23.15,0,0,1-3.09,2.85c1.85-1.42,3.75-2.45,5.71-3.7a22.38,22.38,0,0,1-2.49,2" transform="translate(-7.63 -7.07)"/><path class="cls-4" d="M252.21,24.34a19,19,0,0,0-2.47,2c.16-.15.1-.66.08-.84a9.11,9.11,0,0,0-1,1.3c-.21.48-.26,1-.45,1.49-.5,1.32-1.6,2.44-2.23,3.73" transform="translate(-7.63 -7.07)"/><path class="cls-4" d="M247.73,31.6c-.41.49-1.21.65-1.41,1.26a19.31,19.31,0,0,1,1.77-2.64" transform="translate(-7.63 -7.07)"/><path class="cls-4" d="M248.6,31.56A4.23,4.23,0,0,0,247.2,34" transform="translate(-7.63 -7.07)"/><path class="cls-4" d="M248.36,34.74c-.3,1-1,1.47-1.11,2.54.25-1.51.57-3,1-4.48l-.16.35" transform="translate(-7.63 -7.07)"/><path class="cls-4" d="M248.83,36c-.16,1.23-.27,2.47-.34,3.72" transform="translate(-7.63 -7.07)"/><path class="cls-4" d="M249.57,37.7a28,28,0,0,0,0,3c0,.93,1.31,1.24,1.56,2.14" transform="translate(-7.63 -7.07)"/><path class="cls-4" d="M246.13,30.43a10.11,10.11,0,0,1,2.12-3.71A19.38,19.38,0,0,0,246.13,30.43Z" transform="translate(-7.63 -7.07)"/><path class="cls-4" d="M247.42,26.79,245.48,29" transform="translate(-7.63 -7.07)"/><path class="cls-4" d="M248,27.88a16.42,16.42,0,0,0-2.59,4.78" transform="translate(-7.63 -7.07)"/><path class="cls-4" d="M252.74,29.69l-.38.72a8.27,8.27,0,0,1,.86-2.49c.72-1.19.88-2.52,2.61-2.66a1.49,1.49,0,0,1,.78.11,2,2,0,0,1,.71.71,19.92,19.92,0,0,1,1.75,3.84,9.12,9.12,0,0,1,.77,3.57" transform="translate(-7.63 -7.07)"/><path class="cls-4" d="M258.7,47.48a1.19,1.19,0,0,1-.51.71c-.31.2-.31,0-.45.38.05,0,0,.1,0,.06-.23-.18.6-1.17,1.11-.86.24-.44,1-.81,1.28-1.25A4.68,4.68,0,0,1,259,47.75l.57-.86C259.41,47.12,258.77,47.2,258.7,47.48Z" transform="translate(-7.63 -7.07)"/><path class="cls-4" d="M264.62,39.56c-.38,1.59-.62,4-1.8,5.11a.52.52,0,0,0-.16.44c-.05-.41.61-1.44.74-1.91a21.12,21.12,0,0,1,.8-2.6" transform="translate(-7.63 -7.07)"/><path class="cls-4" d="M260.21,47.17a9.34,9.34,0,0,0,1.29-2.36" transform="translate(-7.63 -7.07)"/><path class="cls-4" d="M262.48,43.57c-.44.9-.85,1.81-1.21,2.74A14.84,14.84,0,0,0,262.48,43.57Z" transform="translate(-7.63 -7.07)"/><path class="cls-4" d="M262.19,45.64a6.75,6.75,0,0,1,.77-2" transform="translate(-7.63 -7.07)"/><path class="cls-4" d="M265.64,34.38c-.14.75-.46,1.8-.57,2.55a14.06,14.06,0,0,0-.17,2.15" transform="translate(-7.63 -7.07)"/><path class="cls-4" d="M265.24,28.17c.29,2,.05,3.91.42,5.87" transform="translate(-7.63 -7.07)"/><path class="cls-4" d="M265.78,29.55a11.5,11.5,0,0,0,.22,2.62" transform="translate(-7.63 -7.07)"/><path class="cls-4" d="M265.42,31.21c.17.79-.31,1.34-.21,2.14s-.07,1,.08,1.78c0,0,0-.1,0-.08s-.06.09-.06.14l.09,2.16c0,.83-.62,1.94-.69,2.76" transform="translate(-7.63 -7.07)"/><path class="cls-4" d="M259.63,30.38v-.21A7.46,7.46,0,0,1,260,33c0,.39,0,.8-.07,1.23a8.75,8.75,0,0,0-.59-4,8.37,8.37,0,0,0-.75-2.07c-1-1.29-1.74-3.37-3.45-1.84A7.82,7.82,0,0,0,254,27.76c.29-.72.57-2,1.34-2a2.21,2.21,0,0,1,2,1" transform="translate(-7.63 -7.07)"/><path class="cls-4" d="M253.27,27.67a4,4,0,0,1,2.53-1.27,3.93,3.93,0,0,1,2.73.75" transform="translate(-7.63 -7.07)"/><path class="cls-4" d="M256.2,25.41c.28-.18.63.07.86.32,1.61,1.74,2.34,4.62,2.72,6.92a6.36,6.36,0,0,1-.23,3.62" transform="translate(-7.63 -7.07)"/><path class="cls-4" d="M257.76,44.72a5.64,5.64,0,0,1-.94,2.92c0-.09.3-.33.33-.42a14.5,14.5,0,0,0,.65-3c0,1.65.11,3.38-1.18,4.67" transform="translate(-7.63 -7.07)"/><path class="cls-4" d="M253.36,46.19a12.37,12.37,0,0,1-1-2.7,6,6,0,0,0,1.78,4.14" transform="translate(-7.63 -7.07)"/><path class="cls-4" d="M252,39.5a15.72,15.72,0,0,1-.33-1.66" transform="translate(-7.63 -7.07)"/><path class="cls-4" d="M244.73,28.86c0-.06-.11,0-.13.07a17.53,17.53,0,0,0-.55,4.49" transform="translate(-7.63 -7.07)"/><path class="cls-4" d="M247.71,24.11a9.39,9.39,0,0,0-2,2.74" transform="translate(-7.63 -7.07)"/><path class="cls-4" d="M245.55,37.56a.27.27,0,0,0-.05-.26l1.95,3.63c0-.08.13-.63.06-.67a.43.43,0,0,0,.09.44,26.18,26.18,0,0,0,1.91,2.65,49.49,49.49,0,0,0,3.12,3.91" transform="translate(-7.63 -7.07)"/><path class="cls-4" d="M245.3,36.79a10.08,10.08,0,0,1-.57-6.22c0-.18.18-.4.35-.32-.07,0-.21.9-.22,1a12.88,12.88,0,0,0,.48,5.05" transform="translate(-7.63 -7.07)"/><path class="cls-4" d="M251.75,22.13a13.39,13.39,0,0,0-3.84,2.61c-1.13,1.06-1.85,2.55-2.89,3.71-.22.25-.46.59-.31.89" transform="translate(-7.63 -7.07)"/><path class="cls-4" d="M251.19,44.62a24.62,24.62,0,0,0,1.58,3.46l-2.22-2.8c-.1-.11-.23-.25-.38-.2" transform="translate(-7.63 -7.07)"/><path class="cls-4" d="M251.27,43.68a12.18,12.18,0,0,0,1.31,2.75,1.47,1.47,0,0,0,.71.66" transform="translate(-7.63 -7.07)"/><path class="cls-4" d="M247.57,38.8a10.35,10.35,0,0,0,1.14,3.88" transform="translate(-7.63 -7.07)"/><path class="cls-4" d="M247.13,40.12a19.11,19.11,0,0,1-.74-5.53c-.08,1.09-.72,2-.59,3.13a2.79,2.79,0,0,0,.42,1.38" transform="translate(-7.63 -7.07)"/><path class="cls-4" d="M244.55,30a9.74,9.74,0,0,0-.06,5.43c.13.59.29,2,.71,2.38" transform="translate(-7.63 -7.07)"/><path class="cls-4" d="M248.15,23.82a10.44,10.44,0,0,0-2.52,2.05c-.33.46-.1.48-.18.92A9.93,9.93,0,0,1,245,28" transform="translate(-7.63 -7.07)"/><path class="cls-4" d="M250,22.47a24,24,0,0,0-3.13,2.65s-.07.08-.06.12.09.07.1,0" transform="translate(-7.63 -7.07)"/><path class="cls-4" d="M244.94,36l0,.21c-.26-1.23-.48-2.47-.65-3.72a4.38,4.38,0,0,0,.07,2.27" transform="translate(-7.63 -7.07)"/><path class="cls-4" d="M246,38.25l-.1-.13,1,2.59c.05.11.12.25.24.26" transform="translate(-7.63 -7.07)"/><path class="cls-4" d="M248.2,42.31A10.2,10.2,0,0,1,247,39.5,10.79,10.79,0,0,0,248.2,42.31Z" transform="translate(-7.63 -7.07)"/><path class="cls-4" d="M248.27,40.74a11.12,11.12,0,0,0,1,3c.35.72.77.61,1.26,1.25" transform="translate(-7.63 -7.07)"/><path class="cls-4" d="M250.29,43.79a16.94,16.94,0,0,0,2,3.43" transform="translate(-7.63 -7.07)"/><path class="cls-4" d="M248.55,42.49a11.69,11.69,0,0,1-1.06-3.13c-.18-1-1.31-2-1.38-3a8.85,8.85,0,0,0,.14,2.13" transform="translate(-7.63 -7.07)"/><path class="cls-4" d="M245.24,37a10.71,10.71,0,0,1,0-3.66c-.14,1.12-.71,1.7-.66,2.83" transform="translate(-7.63 -7.07)"/><path class="cls-4" d="M248.46,23.82c-1.35.93-2.58,1.72-3.09,3.37" transform="translate(-7.63 -7.07)"/><path class="cls-4" d="M249.09,42.87,250.26,45" transform="translate(-7.63 -7.07)"/><path class="cls-4" d="M250.55,44.05a4,4,0,0,0,1.11,2.52" transform="translate(-7.63 -7.07)"/><path class="cls-4" d="M244.54,33.89a6.2,6.2,0,0,0,.53,3.6" transform="translate(-7.63 -7.07)"/><path class="cls-4" d="M248.17,24c0-.1-.16-.05-.22,0-.87,1.09-1.7,2.2-2.49,3.35a1.51,1.51,0,0,0-.37,1" transform="translate(-7.63 -7.07)"/><path class="cls-4" d="M247.93,39.29a6.91,6.91,0,0,0,.76,4" transform="translate(-7.63 -7.07)"/><path class="cls-4" d="M244.58,31c-.07-.09-.19.05-.21.17a13,13,0,0,0,.31,4.94" transform="translate(-7.63 -7.07)"/><path class="cls-4" d="M248.2,23.57a7.35,7.35,0,0,0-2,1.89,4,4,0,0,0-.75,2.58" transform="translate(-7.63 -7.07)"/><path class="cls-4" d="M248.48,41.87a2.63,2.63,0,0,1-.55-1.54,28.57,28.57,0,0,0,1.83,4c0-.17.16-.56.21-.7a5.15,5.15,0,0,0,.87,1.86c.23.26.95,1.05,1.28,1.07" transform="translate(-7.63 -7.07)"/><path class="cls-4" d="M246.31,34.3a.17.17,0,0,0-.24,0,.41.41,0,0,0-.13.25,8.52,8.52,0,0,0,0,3.89" transform="translate(-7.63 -7.07)"/><path class="cls-4" d="M247.71,24.39a6.07,6.07,0,0,0-2.25,4.33" transform="translate(-7.63 -7.07)"/><path class="cls-4" d="M244.92,32.36s0-.09-.06-.07-.05.08-.06.12a12.72,12.72,0,0,0,.2,4.13" transform="translate(-7.63 -7.07)"/><path class="cls-4" d="M246.57,38.51q1,2.18,2.13,4.32" transform="translate(-7.63 -7.07)"/><path class="cls-4" d="M245.7,27.55a1.29,1.29,0,0,0-.47.84,15.06,15.06,0,0,0-.63,3.37,17.87,17.87,0,0,0,.65,4.77" transform="translate(-7.63 -7.07)"/><path class="cls-4" d="M253.29,21.89a4.37,4.37,0,0,0-1.25,0c-.38.06-1.37.7-1.69.59l.24.08c-.06,0-.53-.06-.59-.05l3.7-.49c.42-.06,1-1,1.24-.7a15.26,15.26,0,0,0-2.32.42" transform="translate(-7.63 -7.07)"/><path class="cls-4" d="M248.88,23.69l.31-.19-.07-.24c-.75.65-1.49,1.3-2.22,2a3.44,3.44,0,0,0-1.21,1.7" transform="translate(-7.63 -7.07)"/><path class="cls-4" d="M245.37,32.87c-.13-.18-.26,1.07-.25,1.2a8.66,8.66,0,0,0,.26,1.12c.24,1.19.2,2.42.48,3.62s1.71,1.71,2.29,2.91" transform="translate(-7.63 -7.07)"/><path class="cls-4" d="M249.19,42.26a19.64,19.64,0,0,0,1.08,2.09" transform="translate(-7.63 -7.07)"/><path class="cls-4" d="M251.76,46.54A5.81,5.81,0,0,1,251,44.8c.49.21.63.88.83,1.34" transform="translate(-7.63 -7.07)"/><path class="cls-4" d="M250.09,41.15c.19,1.42,1.21,2.15,1.6,3.52A7.9,7.9,0,0,0,253,47.61" transform="translate(-7.63 -7.07)"/><path class="cls-4" d="M259.85,46c-.09.39-.67.51-.91.82a5.77,5.77,0,0,0-1.12,1.73,4.25,4.25,0,0,0,.22-1.16" transform="translate(-7.63 -7.07)"/><path class="cls-4" d="M261.55,44.46c-.12.64-.41.37-.67,1L260.2,47" transform="translate(-7.63 -7.07)"/><path class="cls-4" d="M263.4,41.62a17.5,17.5,0,0,1-.84,2.69c-.4.84-.74,1.69-1.06,2.57" transform="translate(-7.63 -7.07)"/><path class="cls-4" d="M264.89,33.54A19,19,0,0,1,265,37l-.12-.12a11.06,11.06,0,0,1-.53,3.34,29.91,29.91,0,0,0-1,3.34" transform="translate(-7.63 -7.07)"/><path class="cls-4" d="M264.9,27a6.3,6.3,0,0,1,.66,3.57c0,1.66.08,3.33,0,5" transform="translate(-7.63 -7.07)"/><path class="cls-4" d="M260.46,45.5a21,21,0,0,0-1,2.68" transform="translate(-7.63 -7.07)"/><path class="cls-4" d="M245.23,35.36a11.2,11.2,0,0,0,.53,2.48" transform="translate(-7.63 -7.07)"/><path class="cls-4" d="M250.89,43.5a9.58,9.58,0,0,0,.78,3" transform="translate(-7.63 -7.07)"/><path class="cls-4" d="M246.16,37.15a22.24,22.24,0,0,0,.58,2.41" transform="translate(-7.63 -7.07)"/><path class="cls-4" d="M247.78,39l.58,2" transform="translate(-7.63 -7.07)"/><path class="cls-4" d="M245.62,34.11a6.94,6.94,0,0,0,.2,3c-.07,0-.94-.82-1-.86a7.59,7.59,0,0,0,.76,1.4" transform="translate(-7.63 -7.07)"/><path class="cls-4" d="M246.18,39a12.63,12.63,0,0,1,1,1.52" transform="translate(-7.63 -7.07)"/><path class="cls-4" d="M263.92,41.36c-.19.73-.77,2-1,2.76.23-.67-.33-.54-.27-1.25-.06.87-1,1.82-1.32,2.63-.2.51-1,.24-1.16.76a4,4,0,0,1-.73,1.29" transform="translate(-7.63 -7.07)"/><path class="cls-4" d="M265.4,35.91a20.76,20.76,0,0,1-.7,3.22" transform="translate(-7.63 -7.07)"/><path class="cls-4" d="M265.56,28.87a.69.69,0,0,1,0-.47c.14.83.25,1.68.31,2.53" transform="translate(-7.63 -7.07)"/><path class="cls-4" d="M259.7,47.08a12.79,12.79,0,0,0,2.52-2.18" transform="translate(-7.63 -7.07)"/><path class="cls-4" d="M265.62,35.34l.15-.4a10.48,10.48,0,0,0-.51,2.2" transform="translate(-7.63 -7.07)"/><path class="cls-4" d="M260,47a.59.59,0,0,1-.33.19c1.46-.83,3.26-1.12,3.63-2.76.24-1.06.52-2.12.82-3.16a.56.56,0,0,0-.12.41" transform="translate(-7.63 -7.07)"/><path class="cls-4" d="M260,47.1l-.3.17a2.76,2.76,0,0,1,2.3-1.22" transform="translate(-7.63 -7.07)"/><path class="cls-4" d="M262.17,45.07a4.93,4.93,0,0,1,.93-1.29" transform="translate(-7.63 -7.07)"/><path class="cls-4" d="M265.75,35.56l-.09-5a1.57,1.57,0,0,1,0,1.15c-.19.54.3,1,.33,1.6" transform="translate(-7.63 -7.07)"/><path class="cls-4" d="M260.06,47l1.83-1.31a3.89,3.89,0,0,0,1.5-1.54" transform="translate(-7.63 -7.07)"/><path class="cls-4" d="M265.92,31.28l.14,3.1" transform="translate(-7.63 -7.07)"/><path class="cls-4" d="M259.4,47.33a11.54,11.54,0,0,0,4-3.36" transform="translate(-7.63 -7.07)"/><path class="cls-4" d="M265.8,31.07a13,13,0,0,0,.15,3" transform="translate(-7.63 -7.07)"/><path class="cls-4" d="M260.73,46.65a21,21,0,0,0,2.75-3.59" transform="translate(-7.63 -7.07)"/><path class="cls-4" d="M264.79,25.76c.36,1.29.78,2.55,1.25,3.8" transform="translate(-7.63 -7.07)"/><path class="cls-4" d="M265.16,33.9a20.1,20.1,0,0,1,.21,2.9" transform="translate(-7.63 -7.07)"/><path class="cls-4" d="M262.89,43.5l-.55,1.79" transform="translate(-7.63 -7.07)"/></g></svg>