<svg xmlns="http://www.w3.org/2000/svg" viewBox="0 0 296.74 61.59"><defs>
<style>
@import url('https://fonts.googleapis.com/css?family=Forum|Jura:300,400,500,700|Montserrat:300,400,500,700|Roboto:100,300,500,700,900');

.cls-1{font-size:60px;font-family:Jura-Light,Jura;font-weight:300;}
.cls-1,.cls-6,.cls-7{fill:#231f20;}.cls-2{letter-spacing:-0.02em;}
.cls-3,.cls-4,.cls-5{fill:none;}
.cls-3,.cls-4,.cls-5,.cls-7{stroke:#231f20;stroke-miterlimit:10;}
.cls-3{stroke-width:2px;}.cls-5,.cls-7{stroke-width:0.25px;}
</style>


</defs><g id="Layer_1" data-name="Layer 1"><g id="Layer_2" data-name="Layer 2"><text class="cls-1" transform="translate(57.04 48.99)">erne<tspan class="cls-2" x="128.22" y="0">l</tspan><tspan x="143.46" y="0" xml:space="preserve">c  n</tspan></text></g></g><g id="Layer_8" data-name="Layer 8"><polyline class="cls-3" points="34.98 27.8 40.87 27.8 55.25 10.62"/><polyline class="cls-3" points="34.88 33.1 44.75 32.9 63.11 10.56"/><line class="cls-3" x1="17.51" y1="50.93" x2="17.51" y2="57.27"/><line class="cls-3" x1="22.74" y1="49.72" x2="22.74" y2="57.5"/><line class="cls-3" x1="27.88" y1="49.91" x2="27.98" y2="57.49"/><line class="cls-3" x1="5.5" y1="43.53" x2="3.08" y2="43.53"/><line class="cls-3" x1="5.66" y1="38.13" x2="2.95" y2="38.13"/><line class="cls-3" x1="5.58" y1="33.14" x2="2.88" y2="33.14"/><line class="cls-3" x1="5.55" y1="27.41" x2="2.91" y2="27.41"/><line class="cls-3" x1="17.51" y1="20.78" x2="17.51" y2="10.94"/><line class="cls-3" x1="22.67" y1="20.68" x2="22.68" y2="10.82"/><line class="cls-3" x1="28.13" y1="20.51" x2="28.13" y2="11.02"/><circle class="cls-4" cx="1.76" cy="43.37" r="1.24"/><circle class="cls-4" cx="1.75" cy="38.16" r="1.24"/><circle class="cls-4" cx="1.75" cy="33.01" r="1.24"/><circle class="cls-4" cx="1.75" cy="27.4" r="1.24"/><circle class="cls-4" cx="22.9" cy="58.66" r="1.24"/><circle class="cls-4" cx="28.07" cy="58.65" r="1.24"/><circle class="cls-4" cx="17.54" cy="58.62" r="1.24"/><circle class="cls-4" cx="11.93" cy="58.64" r="1.24"/><circle class="cls-4" cx="11.72" cy="9.63" r="1.24"/><circle class="cls-4" cx="17.49" cy="9.61" r="1.24"/><circle class="cls-4" cx="22.62" cy="9.62" r="1.24"/><circle class="cls-4" cx="28.22" cy="9.63" r="1.24"/><polyline class="cls-3" points="34.58 38.16 44.42 38.16 61.91 57.84"/><polyline class="cls-3" points="34.67 43.31 40.82 43.41 54.79 57.86"/><circle class="cls-4" cx="55.43" cy="58.61" r="1.24"/><circle class="cls-4" cx="62.44" cy="58.62" r="1.24"/><circle class="cls-4" cx="56.19" cy="9.57" r="1.24"/><circle class="cls-4" cx="63.62" cy="9.63" r="1.24"/><line class="cls-3" x1="11.79" y1="20.58" x2="11.79" y2="10.74"/><line class="cls-3" x1="11.92" y1="50.93" x2="11.9" y2="57.44"/></g><g id="Layer_7" data-name="Layer 7"><rect class="cls-5" x="6.29" y="21.5" width="27.59" height="27.59" rx="3.55"/><rect class="cls-5" x="9.78" y="25.15" width="20.61" height="20.61" rx="3.37"/><circle class="cls-6" cx="9.13" cy="23.9" r="0.94"/><polygon class="cls-7" points="9.8 49.11 12.19 52.69 13.53 49.19 9.8 49.11"/><polygon class="cls-7" points="15.34 49.1 17.72 52.68 19.06 49.18 15.34 49.1"/><polygon class="cls-7" points="20.47 49.1 22.86 52.68 24.19 49.18 20.47 49.1"/><polygon class="cls-7" points="25.84 49.13 28.23 52.7 29.57 49.2 25.84 49.13"/><polygon class="cls-7" points="9.91 21.48 12.29 17.91 13.63 21.41 9.91 21.48"/><polygon class="cls-7" points="15.51 21.49 17.89 17.92 19.23 21.42 15.51 21.49"/><polygon class="cls-7" points="20.71 21.5 23.09 17.92 24.43 21.42 20.71 21.5"/><polygon class="cls-7" points="26.1 21.5 28.48 17.93 29.82 21.43 26.1 21.5"/><path class="cls-7" d="M270,237.15s0,.11,0,.16l3.35,1.28.08-3.72Z" transform="translate(-267.19 -209.65)"/><polygon class="cls-7" points="2.71 33.17 2.7 33.18 6.19 34.52 6.27 30.8 2.71 33.17"/><path class="cls-7" d="M270,247.92s0,.05,0,.07l3.42,1.31.07-3.72Z" transform="translate(-267.19 -209.65)"/><path class="cls-7" d="M270.12,253.16a1.34,1.34,0,0,1,0,.28l3.24,1.24.08-3.73Z" transform="translate(-267.19 -209.65)"/><polygon class="cls-7" points="33.92 25.38 37.5 27.76 34 29.1 33.92 25.38"/><polygon class="cls-7" points="33.91 30.95 37.48 33.33 33.98 34.67 33.91 30.95"/><polygon class="cls-7" points="33.91 36.09 37.48 38.47 33.98 39.81 33.91 36.09"/><polygon class="cls-7" points="33.94 41.46 37.51 43.84 34.01 45.18 33.94 41.46"/></g><g id="Layer_9" data-name="Layer 9"><path class="cls-4" d="M517.76,258.65c-.38.17-.41.71-.64,1.07a2.11,2.11,0,0,1-.4.39,19.15,19.15,0,0,1-1.78,1.28,2.06,2.06,0,0,0-.74-.88,7.9,7.9,0,0,0-.9-.29,1.45,1.45,0,0,1-.88-1c-.22-1-1.28-1.86-1.85-2.72-2.29-3.41-5.25-6.48-6.56-10.38a11.51,11.51,0,0,1,1.65-10.8,11.26,11.26,0,0,1,7.14-3.83,16.67,16.67,0,0,1,8.14,1,7.06,7.06,0,0,1,3,1.86,7.14,7.14,0,0,1,1.34,3.29,23.31,23.31,0,0,1,.34,6.4,34.84,34.84,0,0,1-.78,4.75,20.12,20.12,0,0,1-2.14,6.05A10.47,10.47,0,0,1,517.76,258.65Z" transform="translate(-267.19 -209.65)"/><path class="cls-5" d="M512.19,255.91a11.1,11.1,0,0,0,.6,2,6.14,6.14,0,0,0,3.45.29.92.92,0,0,0,1-1l.33-2.28" transform="translate(-267.19 -209.65)"/><path class="cls-5" d="M511.42,247.51a11.26,11.26,0,0,1,.26-6.88,10.7,10.7,0,0,1,2.14-4.19,2.42,2.42,0,0,1,1.67-.92,1.91,1.91,0,0,1,1.45.79,5,5,0,0,1,.76,1.52,22.52,22.52,0,0,1,1.36,5.09,10,10,0,0,1-.65,5.17" transform="translate(-267.19 -209.65)"/><path class="cls-5" d="M512.47,257.75c0,.05,0,.11-.07.11s-.08-.09,0-.1,0,.09,0,.07v-.23a.25.25,0,0,1,0,.26,1.26,1.26,0,0,1,0-.51v.44a1.35,1.35,0,0,1,.12-.79,2.15,2.15,0,0,1-.06.8,1.17,1.17,0,0,1,.11-.33.5.5,0,0,1,0,.46,1,1,0,0,1,.25-.69v.62a.58.58,0,0,1,.2-.31V258l.16-.31a.48.48,0,0,1,.06.26c.17-.22.52-.15.78-.05a1.1,1.1,0,0,1,.62.43l-1.08.06a.42.42,0,0,1-.25,0,.14.14,0,0,1-.05-.21.67.67,0,0,1,.44-.17c.16,0,.31.2.22.33a2.16,2.16,0,0,1,1.92-.06c.07,0,.14.08.12.15s-.15,0-.1,0" transform="translate(-267.19 -209.65)"/><path class="cls-5" d="M512.3,255.8l-.08-.48C512.28,255.69,512.25,255.44,512.3,255.8Z" transform="translate(-267.19 -209.65)"/><path class="cls-5" d="M512.37,256.63l.07.14" transform="translate(-267.19 -209.65)"/><path class="cls-5" d="M505,236.75a6,6,0,0,1,1.16-1.26c-.28.28-.69.77-1,1a5.19,5.19,0,0,0,.64-1.15,5.57,5.57,0,0,0-.9,1.26l1-.94a26.46,26.46,0,0,1-2,2.58,10,10,0,0,0,2.27-2l-2,2.47a6.23,6.23,0,0,0,1.81-2.35,5.56,5.56,0,0,0-1.7,2l1.89-2.44a13.27,13.27,0,0,0-1.67,3.13,13.36,13.36,0,0,0,1.6-2.06,12.12,12.12,0,0,0-2.12,3.6c.7-.92,1.36-1.87,2-2.84a10.67,10.67,0,0,0-2,3.42l2.25-3.25a14.51,14.51,0,0,0-2.37,3.67,9.09,9.09,0,0,0,.56-2.67,1.28,1.28,0,0,0-.61.76,3.77,3.77,0,0,1,1.15-1.71,11.63,11.63,0,0,0-1,2.48,10.84,10.84,0,0,1,1.55-2,7.93,7.93,0,0,0-1.45,3.21l2-2.71a14.44,14.44,0,0,0-2.13,3.84,34,34,0,0,1,1.9-3.38,19.73,19.73,0,0,0-2.09,4.34l2.05-3.57a24.16,24.16,0,0,0-1.84,4.5q.87-2.17,1.91-4.26a25.81,25.81,0,0,0-1.62,5.07,19.33,19.33,0,0,1,1.67-3.75,19.8,19.8,0,0,0-1.43,4.58c.65-1.37,1.24-2.75,1.77-4.16l-1.32,4.3a22.83,22.83,0,0,1,1.32-3.57,22.94,22.94,0,0,0-.91,4l1-2.85a24.46,24.46,0,0,0-.73,3.7,25.2,25.2,0,0,0,1.09-3.42,27,27,0,0,0-.55,3.8l.77-2.74a13.46,13.46,0,0,0-.09,4.2l1.1-3.31-.62,4.34a14.18,14.18,0,0,0,.26-3,9.85,9.85,0,0,0-.32,2.35l.14-3.15a32.33,32.33,0,0,0-.9,3.38l-.5-2.52a3.31,3.31,0,0,1-.24,1.91,12.28,12.28,0,0,1-.5-2.61l0,1.24-.57-2.17-.13.34a.85.85,0,0,1,.09-.73A14.54,14.54,0,0,0,506,249a5.63,5.63,0,0,0,.65-2.22l.16,3.58c.07-1,.18-2.1.34-3.14a17.19,17.19,0,0,0,.34,3.85c.07.32.23.72.56.72a5.08,5.08,0,0,0,.05-3.2c.05,1.47.15,2.93.3,4.4.17-1.24.29-2.49.34-3.73a23,23,0,0,0-.13,4l-1-5.69a24.11,24.11,0,0,0,.71,5.15,38.87,38.87,0,0,1,0-4.45l.58,5.86-.07-2.72a16.74,16.74,0,0,0,.91,3.47c-.06-1-.15-2-.3-3.07a16.18,16.18,0,0,1,.36,2.94,27.78,27.78,0,0,1-.91-4,13.2,13.2,0,0,0,.94,3.48L509.2,251l1.24,4.13-.09-2.53.71,3.28a8.46,8.46,0,0,0-.36-2.34,3.78,3.78,0,0,0,.7,2.32,1.65,1.65,0,0,0-.21-.85v1.14a.54.54,0,0,1-.37-.15,1.48,1.48,0,0,0,1.19,1.77" transform="translate(-267.19 -209.65)"/><path class="cls-5" d="M508.43,234.2l-.07.07" transform="translate(-267.19 -209.65)"/><path class="cls-5" d="M513.69,231.66c-1.22.86-2.74,1.27-4,2.06a14.6,14.6,0,0,0,2.75-2.23,16,16,0,0,1-2.07,1.31,2.34,2.34,0,0,0-.61.36,13.73,13.73,0,0,1-1.73,1.11c-.37.24-.47-.08-.85.15l2.87-2.18-2.56,1.84a10.81,10.81,0,0,1,2.59-1.29l-3.39,3,2.79-1.58a23.21,23.21,0,0,1-3.09,2.85c1.85-1.42,3.75-2.46,5.71-3.7a22.29,22.29,0,0,1-2.49,2" transform="translate(-267.19 -209.65)"/><path class="cls-5" d="M511.77,234.5a19.87,19.87,0,0,0-2.46,2c.15-.15.09-.67.08-.85a9.54,9.54,0,0,0-1.06,1.3c-.21.49-.26,1-.45,1.5-.5,1.31-1.6,2.44-2.23,3.72" transform="translate(-267.19 -209.65)"/><path class="cls-5" d="M507.3,241.76c-.41.5-1.22.66-1.42,1.27a20.27,20.27,0,0,1,1.77-2.64" transform="translate(-267.19 -209.65)"/><path class="cls-5" d="M508.17,241.73a4.2,4.2,0,0,0-1.41,2.47" transform="translate(-267.19 -209.65)"/><path class="cls-5" d="M507.92,244.91c-.3,1-1,1.47-1.11,2.54.25-1.51.57-3,1-4.48l-.16.34" transform="translate(-267.19 -209.65)"/><path class="cls-5" d="M508.39,246.14c-.16,1.24-.27,2.48-.34,3.72" transform="translate(-267.19 -209.65)"/><path class="cls-5" d="M509.14,247.87a25.54,25.54,0,0,0-.06,3c0,.94,1.31,1.25,1.56,2.14" transform="translate(-267.19 -209.65)"/><path class="cls-5" d="M505.69,240.6a10.11,10.11,0,0,1,2.12-3.71A19.38,19.38,0,0,0,505.69,240.6Z" transform="translate(-267.19 -209.65)"/><path class="cls-5" d="M507,237,505,239.16" transform="translate(-267.19 -209.65)"/><path class="cls-5" d="M507.58,238.05a16.29,16.29,0,0,0-2.59,4.78" transform="translate(-267.19 -209.65)"/><path class="cls-5" d="M512.3,239.86l-.37.71a7.92,7.92,0,0,1,.85-2.48c.72-1.2.88-2.52,2.61-2.66a1.48,1.48,0,0,1,.78.1,2,2,0,0,1,.71.72,19.65,19.65,0,0,1,1.75,3.84,9.3,9.3,0,0,1,.78,3.56" transform="translate(-267.19 -209.65)"/><path class="cls-5" d="M518.26,257.65a1.19,1.19,0,0,1-.51.71c-.31.2-.31,0-.45.38.05,0,0,.1,0,.06-.23-.19.6-1.18,1.11-.86.24-.45,1-.81,1.28-1.26a4.88,4.88,0,0,1-1.07,1.24l.57-.86C519,257.29,518.33,257.37,518.26,257.65Z" transform="translate(-267.19 -209.65)"/><path class="cls-5" d="M524.18,249.73c-.38,1.59-.62,4-1.8,5.11a.52.52,0,0,0-.16.44c-.05-.41.62-1.44.74-1.92a21,21,0,0,1,.8-2.59" transform="translate(-267.19 -209.65)"/><path class="cls-5" d="M519.77,257.34a8.94,8.94,0,0,0,1.29-2.37" transform="translate(-267.19 -209.65)"/><path class="cls-5" d="M522,253.74c-.44.89-.85,1.81-1.21,2.74A14.84,14.84,0,0,0,522,253.74Z" transform="translate(-267.19 -209.65)"/><path class="cls-5" d="M521.76,255.8a6.56,6.56,0,0,1,.76-2" transform="translate(-267.19 -209.65)"/><path class="cls-5" d="M525.2,244.55c-.14.75-.46,1.8-.57,2.55a14.06,14.06,0,0,0-.17,2.15" transform="translate(-267.19 -209.65)"/><path class="cls-5" d="M524.8,238.34c.3,2,.05,3.91.43,5.86" transform="translate(-267.19 -209.65)"/><path class="cls-5" d="M525.34,239.72a11.5,11.5,0,0,0,.22,2.62" transform="translate(-267.19 -209.65)"/><path class="cls-5" d="M525,241.38c.17.79-.31,1.34-.2,2.14s-.08,1,.07,1.77c0,0,0-.09,0-.07s-.06.08-.06.14l.09,2.16c0,.83-.62,1.94-.69,2.76" transform="translate(-267.19 -209.65)"/><path class="cls-5" d="M519.19,240.55v-.22a7.54,7.54,0,0,1,.38,2.79c0,.39,0,.8-.07,1.23a8.73,8.73,0,0,0-.59-4,8.19,8.19,0,0,0-.75-2.08c-1-1.28-1.74-3.37-3.45-1.83a7.53,7.53,0,0,0-1.17,1.51c.29-.72.57-2,1.34-2a2.18,2.18,0,0,1,2,1" transform="translate(-267.19 -209.65)"/><path class="cls-5" d="M512.83,237.84a3.94,3.94,0,0,1,5.26-.53" transform="translate(-267.19 -209.65)"/><path class="cls-5" d="M515.76,235.58c.28-.18.63.07.86.31,1.61,1.75,2.34,4.63,2.72,6.93a6.36,6.36,0,0,1-.23,3.62" transform="translate(-267.19 -209.65)"/><path class="cls-5" d="M517.32,254.89a5.54,5.54,0,0,1-.93,2.92c0-.09.29-.33.32-.42a14.64,14.64,0,0,0,.65-3c0,1.65.11,3.37-1.18,4.66" transform="translate(-267.19 -209.65)"/><path class="cls-5" d="M512.92,256.35a11.77,11.77,0,0,1-1-2.69,5.94,5.94,0,0,0,1.77,4.14" transform="translate(-267.19 -209.65)"/><path class="cls-5" d="M511.52,249.66a15.23,15.23,0,0,1-.33-1.66" transform="translate(-267.19 -209.65)"/><path class="cls-5" d="M504.29,239c0-.07-.11,0-.13.06a17.61,17.61,0,0,0-.55,4.5" transform="translate(-267.19 -209.65)"/><path class="cls-5" d="M507.27,234.27a9.81,9.81,0,0,0-2,2.75" transform="translate(-267.19 -209.65)"/><path class="cls-5" d="M505.11,247.72a.26.26,0,0,0-.05-.25l1.95,3.62c0-.08.13-.62.06-.66-.08.13,0,.31.09.44a27.35,27.35,0,0,0,1.91,2.65c.94,1.15,2.06,2.86,3.12,3.91" transform="translate(-267.19 -209.65)"/><path class="cls-5" d="M504.86,247a10.16,10.16,0,0,1-.57-6.22c0-.18.18-.4.35-.33-.07,0-.21.91-.22,1a12.81,12.81,0,0,0,.48,5" transform="translate(-267.19 -209.65)"/><path class="cls-5" d="M511.32,232.29a13.5,13.5,0,0,0-3.85,2.61c-1.13,1.06-1.85,2.55-2.89,3.71-.22.25-.46.59-.31.89" transform="translate(-267.19 -209.65)"/><path class="cls-5" d="M510.75,254.79a25.69,25.69,0,0,0,1.58,3.45l-2.22-2.79c-.1-.12-.23-.25-.37-.2" transform="translate(-267.19 -209.65)"/><path class="cls-5" d="M510.83,253.85a11.91,11.91,0,0,0,1.31,2.74,1.44,1.44,0,0,0,.71.67" transform="translate(-267.19 -209.65)"/><path class="cls-5" d="M507.13,249a10.35,10.35,0,0,0,1.14,3.88" transform="translate(-267.19 -209.65)"/><path class="cls-5" d="M506.69,250.29a19.2,19.2,0,0,1-.74-5.53c-.08,1.09-.72,2-.59,3.12a2.83,2.83,0,0,0,.42,1.38" transform="translate(-267.19 -209.65)"/><path class="cls-5" d="M504.11,240.14a9.7,9.7,0,0,0-.06,5.42c.13.59.29,2,.71,2.39" transform="translate(-267.19 -209.65)"/><path class="cls-5" d="M507.71,234a10.64,10.64,0,0,0-2.52,2c-.33.46-.1.49-.18.93a11.82,11.82,0,0,1-.41,1.23" transform="translate(-267.19 -209.65)"/><path class="cls-5" d="M509.58,232.63a24.85,24.85,0,0,0-3.13,2.66s-.07.07-.06.12.09.07.1,0" transform="translate(-267.19 -209.65)"/><path class="cls-5" d="M504.5,246.14l0,.2c-.26-1.23-.48-2.47-.65-3.71a4.38,4.38,0,0,0,.07,2.27" transform="translate(-267.19 -209.65)"/><path class="cls-5" d="M505.53,248.42l-.1-.13,1,2.58c0,.12.12.25.25.27" transform="translate(-267.19 -209.65)"/><path class="cls-5" d="M507.76,252.48a10.2,10.2,0,0,1-1.17-2.81A10.93,10.93,0,0,0,507.76,252.48Z" transform="translate(-267.19 -209.65)"/><path class="cls-5" d="M507.83,250.91a11.23,11.23,0,0,0,1,3c.35.72.77.61,1.26,1.25" transform="translate(-267.19 -209.65)"/><path class="cls-5" d="M509.85,254a17.29,17.29,0,0,0,2,3.44" transform="translate(-267.19 -209.65)"/><path class="cls-5" d="M508.11,252.65a11.46,11.46,0,0,1-1.06-3.13c-.18-1-1.31-2-1.38-3a8.37,8.37,0,0,0,.15,2.13" transform="translate(-267.19 -209.65)"/><path class="cls-5" d="M504.81,247.18a10.47,10.47,0,0,1,0-3.66c-.14,1.12-.71,1.7-.66,2.83" transform="translate(-267.19 -209.65)"/><path class="cls-5" d="M508,234c-1.34.92-2.58,1.72-3.09,3.37" transform="translate(-267.19 -209.65)"/><path class="cls-5" d="M508.65,253l1.17,2.14" transform="translate(-267.19 -209.65)"/><path class="cls-5" d="M510.11,254.22a4.06,4.06,0,0,0,1.11,2.52" transform="translate(-267.19 -209.65)"/><path class="cls-5" d="M504.1,244.06a6.2,6.2,0,0,0,.53,3.6" transform="translate(-267.19 -209.65)"/><path class="cls-5" d="M507.73,234.19c0-.1-.16-.05-.22,0-.87,1.08-1.7,2.2-2.48,3.34a1.51,1.51,0,0,0-.38,1" transform="translate(-267.19 -209.65)"/><path class="cls-5" d="M507.49,249.46a6.93,6.93,0,0,0,.76,4" transform="translate(-267.19 -209.65)"/><path class="cls-5" d="M504.14,241.16c-.07-.1-.19.05-.21.16a12.91,12.91,0,0,0,.32,5" transform="translate(-267.19 -209.65)"/><path class="cls-5" d="M507.76,233.73a7.83,7.83,0,0,0-2,1.89,4,4,0,0,0-.75,2.58" transform="translate(-267.19 -209.65)"/><path class="cls-5" d="M508,252a2.63,2.63,0,0,1-.55-1.54,28.57,28.57,0,0,0,1.83,4c-.05-.17.16-.56.21-.71a5.12,5.12,0,0,0,.87,1.87c.23.26,1,1.05,1.28,1.07" transform="translate(-267.19 -209.65)"/><path class="cls-5" d="M505.87,244.46c0-.09-.17-.1-.24,0a.41.41,0,0,0-.13.25,8.66,8.66,0,0,0,0,3.89" transform="translate(-267.19 -209.65)"/><path class="cls-5" d="M507.27,234.56a6.07,6.07,0,0,0-2.25,4.33" transform="translate(-267.19 -209.65)"/><path class="cls-5" d="M504.48,242.53s0-.09-.06-.07-.05.07-.06.12a13,13,0,0,0,.2,4.13" transform="translate(-267.19 -209.65)"/><path class="cls-5" d="M506.13,248.67q1,2.18,2.13,4.32" transform="translate(-267.19 -209.65)"/><path class="cls-5" d="M505.26,237.72a1.29,1.29,0,0,0-.47.84,15.64,15.64,0,0,0-.63,3.37,17.87,17.87,0,0,0,.65,4.77" transform="translate(-267.19 -209.65)"/><path class="cls-5" d="M512.85,232.06a4.37,4.37,0,0,0-1.25,0c-.37.06-1.37.7-1.69.59l.25.08c-.07,0-.54-.06-.6-.05l3.7-.5c.42,0,1-1,1.24-.69a16.57,16.57,0,0,0-2.32.41" transform="translate(-267.19 -209.65)"/><path class="cls-5" d="M508.44,233.86l.31-.19-.07-.25q-1.12,1-2.22,2a3.48,3.48,0,0,0-1.21,1.69" transform="translate(-267.19 -209.65)"/><path class="cls-5" d="M504.93,243c-.13-.18-.26,1.07-.25,1.19a8.29,8.29,0,0,0,.26,1.12c.24,1.19.2,2.43.48,3.63s1.71,1.71,2.29,2.91" transform="translate(-267.19 -209.65)"/><path class="cls-5" d="M508.75,252.43a19.64,19.64,0,0,0,1.08,2.09" transform="translate(-267.19 -209.65)"/><path class="cls-5" d="M511.32,256.71a5.92,5.92,0,0,1-.79-1.74c.49.21.63.88.83,1.34" transform="translate(-267.19 -209.65)"/><path class="cls-5" d="M509.66,251.32c.18,1.42,1.21,2.15,1.59,3.52a7.78,7.78,0,0,0,1.28,2.93" transform="translate(-267.19 -209.65)"/><path class="cls-5" d="M519.42,256.15c-.1.38-.67.51-.92.82a5.72,5.72,0,0,0-1.12,1.72,4.11,4.11,0,0,0,.22-1.16" transform="translate(-267.19 -209.65)"/><path class="cls-5" d="M521.11,254.63c-.12.63-.41.37-.67,1l-.68,1.59" transform="translate(-267.19 -209.65)"/><path class="cls-5" d="M523,251.79a19,19,0,0,1-.83,2.69,27.14,27.14,0,0,0-1.07,2.56" transform="translate(-267.19 -209.65)"/><path class="cls-5" d="M524.45,243.71a19,19,0,0,1,.07,3.46l-.12-.13a11.07,11.07,0,0,1-.53,3.35,29.29,29.29,0,0,0-1,3.34" transform="translate(-267.19 -209.65)"/><path class="cls-5" d="M524.46,237.16a6.26,6.26,0,0,1,.66,3.56c0,1.67.08,3.33,0,5" transform="translate(-267.19 -209.65)"/><path class="cls-5" d="M520,255.66a21.11,21.11,0,0,0-1,2.69" transform="translate(-267.19 -209.65)"/><path class="cls-5" d="M504.79,245.52a11.53,11.53,0,0,0,.53,2.48" transform="translate(-267.19 -209.65)"/><path class="cls-5" d="M510.45,253.67a9.58,9.58,0,0,0,.78,3" transform="translate(-267.19 -209.65)"/><path class="cls-5" d="M505.72,247.32a22.24,22.24,0,0,0,.58,2.41" transform="translate(-267.19 -209.65)"/><path class="cls-5" d="M507.34,249.17l.58,2" transform="translate(-267.19 -209.65)"/><path class="cls-5" d="M505.18,244.27a7,7,0,0,0,.2,3c-.07,0-.94-.82-1-.87a7.36,7.36,0,0,0,.76,1.41" transform="translate(-267.19 -209.65)"/><path class="cls-5" d="M505.74,249.18a12.63,12.63,0,0,1,1,1.52" transform="translate(-267.19 -209.65)"/><path class="cls-5" d="M523.48,251.52c-.19.74-.77,2-1,2.77.23-.68-.33-.55-.26-1.25-.07.87-1,1.82-1.33,2.63-.2.51-1,.24-1.16.76a4,4,0,0,1-.73,1.29" transform="translate(-267.19 -209.65)"/><path class="cls-5" d="M525,246.07a22.15,22.15,0,0,1-.71,3.23" transform="translate(-267.19 -209.65)"/><path class="cls-5" d="M525.12,239a.79.79,0,0,1,0-.48,24.12,24.12,0,0,1,.31,2.54" transform="translate(-267.19 -209.65)"/><path class="cls-5" d="M519.27,257.24a12.69,12.69,0,0,0,2.51-2.18" transform="translate(-267.19 -209.65)"/><path class="cls-5" d="M525.18,245.51l.15-.4a11,11,0,0,0-.51,2.2" transform="translate(-267.19 -209.65)"/><path class="cls-5" d="M519.55,257.18a.57.57,0,0,1-.33.2c1.47-.83,3.26-1.12,3.64-2.77q.36-1.59.81-3.15a.59.59,0,0,0-.12.41" transform="translate(-267.19 -209.65)"/><path class="cls-5" d="M519.55,257.26l-.3.18a2.74,2.74,0,0,1,2.3-1.22" transform="translate(-267.19 -209.65)"/><path class="cls-5" d="M521.73,255.24a5,5,0,0,1,.93-1.3" transform="translate(-267.19 -209.65)"/><path class="cls-5" d="M525.31,245.73l-.09-5a1.63,1.63,0,0,1,0,1.15c-.2.54.29,1,.32,1.6" transform="translate(-267.19 -209.65)"/><path class="cls-5" d="M519.62,257.12l1.84-1.31a3.93,3.93,0,0,0,1.49-1.54" transform="translate(-267.19 -209.65)"/><path class="cls-5" d="M525.48,241.45l.14,3.1" transform="translate(-267.19 -209.65)"/><path class="cls-5" d="M519,257.49a11.43,11.43,0,0,0,4-3.36" transform="translate(-267.19 -209.65)"/><path class="cls-5" d="M525.36,241.24a12.9,12.9,0,0,0,.15,3" transform="translate(-267.19 -209.65)"/><path class="cls-5" d="M520.29,256.82a21.36,21.36,0,0,0,2.75-3.59" transform="translate(-267.19 -209.65)"/><path class="cls-5" d="M524.35,235.93c.36,1.28.78,2.55,1.25,3.8" transform="translate(-267.19 -209.65)"/><path class="cls-5" d="M524.72,244.07a20.1,20.1,0,0,1,.21,2.9" transform="translate(-267.19 -209.65)"/><path class="cls-5" d="M522.45,253.67l-.55,1.79" transform="translate(-267.19 -209.65)"/></g></svg>